HIERARCHY
ROOT Hips
{
  OFFSET 65.7812 93.4024 -30.2
  CHANNELS 6 Xposition Yposition Zposition Zrotation Xrotation Yrotation
  JOINT ToSpine
  {
    OFFSET -2.69724 7.43032 -0.144315
    CHANNELS 3 Zrotation Xrotation Yrotation
    JOINT Spine
    {
      OFFSET -0.0310711 10.7595 1.96963
      CHANNELS 3 Zrotation Xrotation Yrotation
      JOINT Spine1
      {
        OFFSET 13.1342 3.43533 0.764692
        CHANNELS 3 Zrotation Xrotation Yrotation
        JOINT Neck
        {
          OFFSET 29.8703 7.82586 -0.130764
          CHANNELS 3 Zrotation Xrotation Yrotation
          JOINT Head
          {
            OFFSET 9.52751 0.295786 -0.907742
            CHANNELS 3 Zrotation Xrotation Yrotation
            End Site
            {
              OFFSET 16.4037 0.713936 2.7358
            }
          }
        }
        JOINT LeftShoulder
        {
          OFFSET 27.5574 4.95586 2.47156
          CHANNELS 3 Zrotation Xrotation Yrotation
          JOINT LeftArm
          {
            OFFSET 1.20734 -0.998971 20.1238
            CHANNELS 3 Zrotation Xrotation Yrotation
            JOINT LeftForeArm
            {
              OFFSET 26.8049 -0.0536703 -0.155908
              CHANNELS 3 Zrotation Xrotation Yrotation
              JOINT LeftHand
              {
                OFFSET 26.6817 0 0.320147
                CHANNELS 3 Zrotation Xrotation Yrotation
                End Site
                {
                  OFFSET 18.6119 0 0.382219
                }
              }
            }
          }
        }
        JOINT RightShoulder
        {
          OFFSET 27.5927 4.71444 -2.65209
          CHANNELS 3 Zrotation Xrotation Yrotation
          JOINT RightArm
          {
            OFFSET 2.83739 -1.17114 -18.7564
            CHANNELS 3 Zrotation Xrotation Yrotation
            JOINT RightForeArm
            {
              OFFSET 28.839 -0.0548439 1.22491
              CHANNELS 3 Zrotation Xrotation Yrotation
              JOINT RightHand
              {
                OFFSET 26.5114 0 -0.101894
                CHANNELS 3 Zrotation Xrotation Yrotation
                End Site
                {
                  OFFSET 18.2168 0 0
                }
              }
            }
          }
        }
      }
    }
  }
  JOINT LeftUpLeg
  {
    OFFSET -4.76168 -1.9167 -10.2353
    CHANNELS 3 Zrotation Xrotation Yrotation
    JOINT LeftLeg
    {
      OFFSET 2.55951 -42.0585 -8.02213
      CHANNELS 3 Zrotation Xrotation Yrotation
      JOINT LeftFoot
      {
        OFFSET 3.16357 -42.5282 -3.95426
        CHANNELS 3 Zrotation Xrotation Yrotation
        JOINT LeftToeBase
        {
          OFFSET 0.346054 -6.02161 12.8035
          CHANNELS 3 Zrotation Xrotation Yrotation
          End Site
          {
            OFFSET 0.134235 -1.35082 5.13018
          }
        }
      }
    }
  }
  JOINT RightUpLeg
  {
    OFFSET -4.94151 -1.41743 10.6446
    CHANNELS 3 Zrotation Xrotation Yrotation
    JOINT RightLeg
    {
      OFFSET -2.56294 -42.0364 -7.94377
      CHANNELS 3 Zrotation Xrotation Yrotation
      JOINT RightFoot
      {
        OFFSET -3.0952 -42.555 -4.02241
        CHANNELS 3 Zrotation Xrotation Yrotation
        JOINT RightToeBase
        {
          OFFSET -0.0828122 -6.13587 12.8035
          CHANNELS 3 Zrotation Xrotation Yrotation
          End Site
          {
            OFFSET -0.131328 -1.35082 5.13018
          }
        }
      }
    }
  }
}
MOTION
Frames:	10
Frame Time:	0.0333333
-31.4254 92.8105 -104.758 52.012 -45.9792 -30.5022 -70.1915 0 88.8779 124.984 71.4714 -38.5575 -6.30286 23.8178 4.74526 -161.392 22.9441 176.618 -152.099 61.9506 -176.56 0.594677 -12.3469 -31.4324 -71.8241 54.7415 -65.7279 7.39573 14.1947 -28.5678 0.420957 0.000575289 0.358661 -2.13696 6.78852 45.8155 -73.0017 -23.7643 95.3037 19.1324 -5.52794 74.3544 0.58676 0.00033114 0.0646654 -18.7147 7.14931 96.0218 -3.25291 45.4206 -7.68631 -0.670471 -9.95263 -0.849444 6.99549 -15.8551 17.0597 -56.3904 1.79202 83.2714 0.566231 35.5853 4.60673 -6.86684 -24.9329 1.50226 2.42692 -9.01728 -15.9705 
-34.1105 93.7716 -106.882 53.8376 -45.8445 -28.2746 -70.1915 0 88.8779 123.442 71.2932 -35.8659 -5.42292 23.2315 4.86106 -159.763 23.2947 176.392 -151.995 62.3438 -175.63 0.57035 -12.4556 -31.5096 -73.7412 53.7035 -64.8206 7.32757 12.6887 -30.0503 0.420957 0.000575289 0.358661 -2.1231 6.58467 46.5763 -72.5892 -23.0961 91.7305 18.3079 -6.36303 71.3739 0.58676 0.00033114 0.0646654 -21.6363 6.78918 95.1993 -3.6279 48.9961 -6.82128 -0.732915 -9.81785 -0.835128 7.07244 -15.9336 16.3232 -55.6598 2.0853 81.4698 1.10453 34.8581 6.05108 -6.55354 -22.4847 1.47633 2.37086 -8.45978 -15.2306 
-36.8314 94.7337 -108.869 53.7015 -46.1828 -28.2045 -70.1915 0 88.8779 119.915 72.0876 -31.8354 -4.71789 23.359 4.82504 -157.835 23.4368 174.714 -148.459 62.0262 -178.462 0.552281 -12.5818 -31.1341 -73.517 52.5571 -65.8317 7.12299 11.441 -31.9395 0.420957 0.000575289 0.358661 -2.08943 6.40181 46.9793 -71.9649 -23.2116 88.7165 18.0599 -7.74561 67.4564 0.58676 0.00033114 0.0646654 -24.5883 7.23927 95.7195 -3.9916 52.5392 -5.10588 -1.97754 -9.68108 -0.768305 6.47384 -15.0071 15.4663 -53.6989 2.89382 81.6657 1.3074 34.3137 6.10091 -5.27609 -20.5846 1.5019 2.43195 -7.19989 -15.7127 
-39.4288 95.3798 -110.881 54.6239 -46.9598 -28.5625 -70.1915 0 88.8779 121.512 72.0843 -35.3304 -6.23946 23.3545 6.39174 -156.805 23.831 174.293 -149.898 62.6297 -177.211 0.5278 -12.7534 -30.6773 -73.4701 51.3131 -66.4547 8.97214 13.0519 -34.6171 0.420957 0.000575289 0.358661 -2.00843 6.22157 46.6703 -71.0727 -24.3053 86.0243 16.9046 -8.75634 63.3322 0.58676 0.00033114 0.0646654 -29.5233 6.77337 97.5651 -4.2912 55.2345 -3.55475 -1.61217 -7.7329 -0.600652 7.24851 -16.1705 15.8299 -52.691 2.25873 81.6187 1.24035 34.0229 6.73501 -5.32399 -19.1139 1.45002 2.5025 -10.6867 -17.4787 
-41.5876 95.8187 -112.803 55.6519 -46.728 -27.8562 -70.1915 0 88.8779 117.373 72.1402 -30.6474 -4.96591 23.0457 5.47532 -156.943 23.8889 174.097 -150.391 62.7107 -177.296 0.574468 -12.5939 -30.0288 -73.3424 49.6708 -67.5879 9.3171 11.8738 -38.226 0.420957 0.000575289 0.358661 -1.9765 6.22848 46.1489 -71.2747 -25.5682 83.5375 18.7324 -11.0599 60.4385 0.58676 0.00033114 0.0646654 -33.8669 5.57017 97.9116 -5.12336 58.3276 -4.00263 -1.62181 -6.24471 -0.460372 7.43687 -16.5111 17.7609 -52.4498 1.5524 80.5589 1.66957 32.6341 8.72698 -5.42129 -18.5483 1.42781 2.39418 -15.3082 -18.7015 
-43.7773 95.8482 -114.722 56.2524 -46.7307 -26.997 -70.1915 0 88.8779 114.547 72.1401 -26.8819 -4.10783 22.8874 4.68288 -156.948 23.9111 173.203 -149.153 62.5284 -178.951 0.492294 -12.9995 -30.1325 -73.8637 47.1464 -67.6439 9.98941 11.1424 -41.9903 0.420957 0.000575289 0.358661 -1.92037 6.09121 45.9772 -70.648 -26.6781 81.4189 17.056 -11.2406 57.5274 0.58676 0.00033114 0.0646654 -38.1008 5.08366 98.3988 -5.82431 60.9695 -3.40204 -2.02824 -8.53483 -0.653527 4.26867 -11.9971 17.9101 -51.5543 1.66648 79.8853 2.28317 32.1323 9.78698 -5.69604 -18.5355 1.41796 2.14444 -20.5531 -19.9295 
-45.9425 95.6343 -116.639 56.5113 -46.6467 -25.8919 -70.1915 0 88.8779 110.873 72.0019 -22.1726 -2.85359 22.3349 4.3554 -158.099 23.7723 173.612 -150.757 62.4977 -178.65 0.547493 -12.7113 -30.199 -74.726 44.5805 -68.6576 11.0226 10.7544 -45.8439 0.420957 0.000575289 0.358661 -1.92888 6.1559 45.782 -70.4606 -27.1375 79.8821 16.8895 -12.2819 54.9504 0.58676 0.00033114 0.0646654 -42.2997 4.95783 98.5785 -6.26899 62.4528 -2.93669 -2.0832 -9.45584 -0.741374 2.95196 -9.98535 17.2631 -50.1393 2.69333 79.5603 2.90472 31.8666 9.08145 -6.45081 -18.6293 1.39422 1.86133 -23.3834 -22.5985 
-48.0804 95.4408 -118.627 57.3642 -46.5791 -24.478 -70.1915 0 88.8779 109.386 71.436 -20.1647 -2.46044 21.6443 4.29573 -157.604 23.5517 172.992 -150.127 62.1736 -179.36 0.516632 -12.8631 -30.2349 -76.7495 42.113 -68.9364 11.9185 10.6548 -48.3723 0.420957 0.000575289 0.358661 -1.98621 6.21775 46.3509 -70.3732 -26.9926 78.4001 17.036 -13.9181 51.8389 0.58676 0.00033114 0.0646654 -47.5433 4.41334 98.5521 -6.24805 61.4858 -4.76272 -4.20531 -8.31751 -0.509387 5.18602 -13.1344 16.005 -48.4373 2.89215 78.4153 3.71825 32.5082 7.20148 -8.73896 -17.3134 1.31128 1.93671 -25.4486 -18.9525 
-50.0669 95.2524 -120.614 58.1552 -46.4749 -22.9499 -70.1915 0 88.8779 108.695 70.7994 -18.7732 -2.04443 20.8863 4.17624 -157.526 23.2606 173.048 -150.645 61.9418 -178.909 0.475989 -13.0469 -30.3958 -78.3907 40.0343 -70.1553 11.0853 9.40182 -49.7865 0.420957 0.000575289 0.358661 -1.97607 6.14315 46.5749 -69.5152 -26.413 78.7421 15.5188 -14.9613 47.0775 0.58676 0.00033114 0.0646654 -52.2272 4.068 98.7907 -5.68107 59.7985 -4.65516 -2.54221 -9.34302 -0.708552 1.99834 -7.78762 13.2725 -46.5425 3.09547 76.6443 3.86561 33.8287 9.21688 -8.85599 -16.4093 1.30784 1.88632 -25.2563 -19.8656 
-51.9493 94.826 -122.493 59.3946 -45.9158 -21.0778 -70.1915 0 88.8779 106.524 70.1285 -16.6177 -1.05043 19.7853 4.54563 -157.681 23.031 173.146 -151.561 61.8182 -178.173 0.431705 -13.2778 -30.3328 -80.5384 38.126 -71.1001 11.8847 9.4541 -51.6124 0.420957 0.000575289 0.358661 -1.96782 6.18976 46.2109 -69.5026 -26.7857 78.6056 13.8717 -14.9813 43.7057 0.58676 0.00033114 0.0646654 -56.9788 3.42072 98.4204 -4.78996 56.6251 -4.50253 -1.85478 -8.34527 -0.644687 5.31608 -12.6948 9.86513 -44.3933 3.72261 75.6905 3.17134 35.7116 8.87505 -8.48057 -16.0002 1.31169 2.01971 -24.1017 -18.59 
